<?xml version="1.0" standalone="no"?><!DOCTYPE svg PUBLIC "-//W3C//DTD SVG 1.1//EN" "http://www.w3.org/Graphics/SVG/1.1/DTD/svg11.dtd"><svg class="icon" width="64px" height="64.00px" viewBox="0 0 1024 1024" version="1.1" xmlns="http://www.w3.org/2000/svg"><path fill="#000000" d="M706.048 272.896h238.592L646.144 0v216.576c0 28.16 29.696 56.32 59.904 56.32zM649.728 321.024c-30.208 0-54.784-23.04-54.784-51.2V0h-460.8c-30.208 0-54.784 23.04-54.784 51.2v921.6c0 28.16 24.576 51.2 54.784 51.2h755.712c30.208 0 54.784-23.04 54.784-51.2V321.024h-294.912zM220.16 239.616h266.24c14.848 0 27.136 11.776 27.136 25.6s-12.288 25.6-27.136 25.6H220.16c-14.848 0-27.136-11.776-27.136-25.6s12.288-25.6 27.136-25.6z m596.992 544.768H220.16c-14.848 0-27.136-11.776-27.136-25.6s12.288-25.6 27.136-25.6h596.992c14.848 0 27.136 11.776 27.136 25.6s-11.776 25.6-27.136 25.6z m0-246.784H220.16c-14.848 0-27.136-11.776-27.136-25.6s12.288-25.6 27.136-25.6h596.992c14.848 0 27.136 11.776 27.136 25.6s-11.776 25.6-27.136 25.6z" /></svg>