<?xml version="1.0" standalone="no"?><!DOCTYPE svg PUBLIC "-//W3C//DTD SVG 1.1//EN" "http://www.w3.org/Graphics/SVG/1.1/DTD/svg11.dtd"><svg class="icon" width="64px" height="64.00px" viewBox="0 0 1024 1024" version="1.1" xmlns="http://www.w3.org/2000/svg"><path fill="#000000" d="M512 65c246.871 0 447 200.129 447 447S758.871 959 512 959 65 758.871 65 512 265.129 65 512 65z m0 64c-211.525 0-383 171.475-383 383s171.475 383 383 383 383-171.475 383-383-171.475-383-383-383z m42.845 333.824l0.015 1.176-0.001 156.399 0.563-0.304c16.55-8.761 37.482-6.21 51.45 7.553l0.514 0.515c16.86 17.161 16.788 44.636-0.034 61.71l-0.515 0.513-65.14 64c-27.551 27.068-73.9 8.016-74.823-30.221L466.86 723l-0.001-155.234-0.051 0.025c-15.986 7.553-35.607 4.951-49.117-7.894l-0.523-0.506c-17.163-16.858-17.58-44.33-1.065-61.7l0.506-0.523 62.86-64c27.325-27.821 74.437-8.945 75.376 29.656zM512 255c39.765 0 72 32.235 72 72s-32.235 72-72 72-72-32.235-72-72 32.235-72 72-72z" /></svg>