<?xml version="1.0" standalone="no"?><!DOCTYPE svg PUBLIC "-//W3C//DTD SVG 1.1//EN" "http://www.w3.org/Graphics/SVG/1.1/DTD/svg11.dtd"><svg class="icon" width="64px" height="64.00px" viewBox="0 0 1024 1024" version="1.1" xmlns="http://www.w3.org/2000/svg"><path fill="#000000" d="M743.225806 677.16129a33.032258 33.032258 0 0 1 33.032259 33.032258v66.064517h165.16129a33.032258 33.032258 0 1 1 0 66.064516H776.258065v66.064516a33.032258 33.032258 0 1 1-66.064517 0V710.193548a33.032258 33.032258 0 0 1 33.032258-33.032258z m-132.129032 99.096775a33.032258 33.032258 0 1 1 0 66.064516H82.580645a33.032258 33.032258 0 1 1 0-66.064516h528.516129zM280.774194 379.870968a33.032258 33.032258 0 0 1 33.032258 33.032258v198.193548a33.032258 33.032258 0 1 1-66.064517 0v-66.064516H82.580645a33.032258 33.032258 0 1 1 0-66.064516h165.16129v-66.064516a33.032258 33.032258 0 0 1 33.032259-33.032258z m660.645161 99.096774a33.032258 33.032258 0 1 1 0 66.064516H412.903226a33.032258 33.032258 0 1 1 0-66.064516h528.516129zM743.225806 82.580645a33.032258 33.032258 0 0 1 33.032259 33.032258v66.064516h165.16129a33.032258 33.032258 0 1 1 0 66.064516H776.258065v66.064517a33.032258 33.032258 0 1 1-66.064517 0V115.612903a33.032258 33.032258 0 0 1 33.032258-33.032258z m-132.129032 99.096774a33.032258 33.032258 0 1 1 0 66.064516H82.580645a33.032258 33.032258 0 1 1 0-66.064516h528.516129z" /></svg>