<?xml version="1.0" standalone="no"?><!DOCTYPE svg PUBLIC "-//W3C//DTD SVG 1.1//EN" "http://www.w3.org/Graphics/SVG/1.1/DTD/svg11.dtd"><svg class="icon" width="64px" height="64.00px" viewBox="0 0 1024 1024" version="1.1" xmlns="http://www.w3.org/2000/svg"><path fill="#ffffff" d="M545.14 513.894l222.513-222.513c9.469-9.469 9.469-24.618 0-33.14l-232.927-232.927c-6.627-6.627-17.044-8.522-25.566-4.734s-14.202 12.309-14.202 21.778v420.406l-205.469-204.524c-9.469-9.469-24.618-9.469-33.14 0-9.469 9.469-9.469 24.618 0 33.14l222.513 222.513-222.513 221.565c-9.469 9.469-9.469 24.618 0 33.14 9.469 9.469 24.618 9.469 33.14 0l204.524-204.524v421.355c0 9.469 5.682 17.989 14.202 21.778 2.839 0.946 5.682 1.894 9.469 1.894 6.627 0 12.309-2.839 17.044-6.627l232.927-232.927c9.469-9.469 9.469-24.618 0-33.14l-222.513-222.513zM541.353 99.168l176.116 176.116-176.116 175.169v-351.286zM541.353 928.62v-352.233l176.116 176.116-176.116 176.116z"  /></svg>