<?xml version="1.0" standalone="no"?><!DOCTYPE svg PUBLIC "-//W3C//DTD SVG 1.1//EN" "http://www.w3.org/Graphics/SVG/1.1/DTD/svg11.dtd"><svg class="icon" width="64px" height="64.00px" viewBox="0 0 1024 1024" version="1.1" xmlns="http://www.w3.org/2000/svg"><path fill="#ffffff" d="M654.207 725.31c-10.773 0-21.548-4.31-30.163-12.927-62.484-62.484-163.753-62.484-226.238 0-17.237 17.237-44.171 17.237-61.406 0-17.237-17.237-17.237-44.171 0-61.406 95.882-95.882 252.092-95.882 347.973 0 17.237 17.237 17.237 44.171 0 61.406-7.54 8.618-18.314 12.927-30.163 12.927z"  /><path fill="#ffffff" d="M798.567 582.027c-10.773 0-21.548-4.31-30.163-12.927-141.129-141.129-371.676-141.129-513.879 0-17.237 17.237-44.171 17.237-61.406 0-17.237-17.237-17.237-44.171 0-61.406 175.602-175.602 460.014-175.602 635.619 0 17.237 17.237 17.237 44.171 0 61.406-8.618 8.618-19.392 12.927-30.163 12.927z"  /><path fill="#ffffff" d="M941.851 437.664c-10.773 0-21.548-4.31-30.163-12.927-107.731-106.653-249.937-165.907-400.763-165.907-150.825 0-293.031 59.253-400.763 165.907-17.237 17.237-44.171 17.237-61.406 0-17.237-17.237-17.237-44.171 0-61.406 122.814-122.814 287.643-190.686 461.090-190.686 174.525 0 338.278 67.871 461.090 190.686 17.237 17.237 17.237 44.171 0 61.406-7.54 8.618-18.314 12.927-29.088 12.927z"  /><path fill="#ffffff" d="M468.909 815.804c0 24.394 19.775 44.171 44.171 44.171 24.394 0 44.171-19.775 44.171-44.171 0 0 0 0 0 0 0-24.394-19.775-44.171-44.171-44.171-24.394 0-44.171 19.775-44.171 44.171z"  /></svg>