<?xml version="1.0" standalone="no"?><!DOCTYPE svg PUBLIC "-//W3C//DTD SVG 1.1//EN" "http://www.w3.org/Graphics/SVG/1.1/DTD/svg11.dtd"><svg class="icon" width="64px" height="64.00px" viewBox="0 0 1024 1024" version="1.1" xmlns="http://www.w3.org/2000/svg"><path d="M1.264376 1.257151h1021.478473v1021.492923H1.264376z" fill="#769AFF" /><path d="M1.264376 1.257151l1021.471248 1021.485698M1.264376 1022.742849L1022.735624 1.257151" fill="#769AFF" /><path d="M513.640076 64.620447c-188.854413 0-342.494151 153.654188-342.494151 342.508601 0 177.21493 280.756481 497.846215 312.777704 533.826741a39.759204 39.759204 0 0 0 59.447344 0c32.021223-35.973301 312.792154-356.604586 312.792154-533.826741 0.007225-188.854413-153.654188-342.508601-342.523051-342.508601z m0 492.860961c-76.483906 0-138.727327-62.228971-138.727326-138.727326 0-76.491131 62.243421-138.720102 138.727326-138.720102 76.512806 0 138.741777 62.228971 138.741777 138.720102 0.007225 76.498356-62.228971 138.727327-138.741777 138.727326z" fill="#FFFFFF" /></svg>