<?xml version="1.0" standalone="no"?><!DOCTYPE svg PUBLIC "-//W3C//DTD SVG 1.1//EN" "http://www.w3.org/Graphics/SVG/1.1/DTD/svg11.dtd"><svg class="icon" width="64px" height="64.00px" viewBox="0 0 1024 1024" version="1.1" xmlns="http://www.w3.org/2000/svg"><path d="M528 542.4c-78.4 0-142.4-64-142.4-142.4s64-142.4 142.4-142.4 142.4 64 142.4 142.4-64 142.4-142.4 142.4zM528 320c-43.2 0-80 35.2-80 80s35.2 78.4 78.4 78.4 78.4-35.2 78.4-78.4-33.6-80-76.8-80z" fill="#229BFF" /><path d="M838.4 625.6c49.6-65.6 76.8-144 76.8-227.2 0-208-174.4-377.6-387.2-377.6S140.8 190.4 140.8 400c0 83.2 27.2 161.6 76.8 227.2l284.8 379.2 3.2 3.2 1.6 1.6h1.6c1.6 1.6 4.8 3.2 6.4 3.2 1.6 0 1.6 0 1.6 1.6 3.2 1.6 6.4 1.6 8 1.6 3.2 0 6.4 0 8-1.6 1.6 0 1.6 0 3.2-1.6s4.8-1.6 6.4-3.2h1.6l1.6-1.6 3.2-3.2 289.6-380.8zM528 84.8c179.2 0 323.2 140.8 323.2 315.2 0 68.8-22.4 132.8-64 188.8L528 932.8 268.8 587.2c-41.6-54.4-64-120-64-188.8 0-172.8 144-313.6 323.2-313.6z" fill="#43484D" /></svg>