<?xml version="1.0" standalone="no"?><!DOCTYPE svg PUBLIC "-//W3C//DTD SVG 1.1//EN" "http://www.w3.org/Graphics/SVG/1.1/DTD/svg11.dtd"><svg class="icon" width="64px" height="64.00px" viewBox="0 0 1024 1024" version="1.1" xmlns="http://www.w3.org/2000/svg"><path d="M393.365854 636.878049m-387.121952 0a387.121951 387.121951 0 1 0 774.243903 0 387.121951 387.121951 0 1 0-774.243903 0Z" fill="#EDF6FF" /><path d="M643.121951 249.756098m-74.926829 0a74.926829 74.926829 0 1 0 149.853658 0 74.926829 74.926829 0 1 0-149.853658 0Z" fill="#2394FB" /><path d="M643.121951 649.365854S393.365854 387.69639 393.365854 249.756098a249.756098 249.756098 0 0 1 499.512195 0c0 137.940293-249.756098 399.609756-249.756098 399.609756z m0-599.414634a199.804878 199.804878 0 0 0-199.804878 199.804878c0 110.354732 199.804878 324.682927 199.804878 324.682926s199.804878-214.328195 199.804878-324.682926A199.804878 199.804878 0 0 0 643.121951 49.95122zM403.730732 512l25.974634 40.260683c-68.058537 20.604878-111.266341 50.80039-111.266342 84.567415 0 62.076878 145.358049 112.390244 324.682927 112.390243s324.682927-50.313366 324.682927-112.390243c0-33.717073-43.207805-63.962537-111.266341-84.567415L882.513171 512C965.182439 541.783415 1017.756098 586.63961 1017.756098 636.878049c0 89.662439-167.71122 162.341463-374.634147 162.341463s-374.634146-72.679024-374.634146-162.341463c0-50.188488 52.573659-95.044683 135.242927-124.878049z" fill="#040405" /></svg>