<?xml version="1.0" standalone="no"?><!DOCTYPE svg PUBLIC "-//W3C//DTD SVG 1.1//EN" "http://www.w3.org/Graphics/SVG/1.1/DTD/svg11.dtd"><svg class="icon" width="64px" height="64.00px" viewBox="0 0 1024 1024" version="1.1" xmlns="http://www.w3.org/2000/svg"><path fill="#ffffff" d="M512.526 138.665c205.853 0 373.335 167.476 373.335 373.335 0 205.853-167.481 373.335-373.335 373.335-205.859 0-373.335-167.481-373.335-373.335 0.001-205.859 167.476-373.335 373.335-373.335m0 821.335c247.034 0 448-200.966 448-448 0-247.035-200.966-448-448-448-247.035 0-448 200.965-448 448 0 247.034 200.965 448 448 448m49.725-251.326a37.327 37.327 0 0 0 36.527 7.707 37.331 37.331 0 0 0 24.94-27.771 37.344 37.344 0 0 0-11.586-35.49L455.776 512.749l156.913-146.836c14.448-14.201 14.932-37.336 1.088-52.124-13.837-14.795-36.953-15.854-52.083-2.382L375.027 486.055a37.284 37.284 0 0 0-11.839 27.64 37.28 37.28 0 0 0 12.396 27.389l186.667 167.629v-0.039z m0-19.566" /></svg>