<?xml version="1.0" standalone="no"?><!DOCTYPE svg PUBLIC "-//W3C//DTD SVG 1.1//EN" "http://www.w3.org/Graphics/SVG/1.1/DTD/svg11.dtd"><svg class="icon" width="64px" height="64.00px" viewBox="0 0 1024 1024" version="1.1" xmlns="http://www.w3.org/2000/svg"><path fill="#ffffff" d="M512.050176 362.662912c-81.654784 0-147.854336 66.86208-147.854336 149.339136 0 82.471936 66.199552 149.328896 147.854336 149.328896s147.854336-66.85696 147.854336-149.328896c-0.001024-82.477056-66.199552-149.339136-147.854336-149.339136z m0 248.204288c-55.00928 0-99.607552-44.264448-99.607552-98.860032 0-54.605824 44.598272-98.875392 99.607552-98.875392s99.607552 44.268544 99.607552 98.875392c0 54.596608-44.598272 98.860032-99.607552 98.860032z m417.66912 6.738944l-69.249024-40.38144c3.883008-21.202944 6.429696-42.868736 6.429696-65.222656 0-22.35392-2.546688-44.019712-6.434816-65.226752l69.249024-40.38144c28.290048-16.492544 37.979136-53.025792 21.651456-81.595392l-59.14112-103.45984c-16.3328-28.573696-52.502528-38.363136-80.792576-21.865472l-69.961728 40.790016c-32.68608-28.105728-69.842944-51.06688-111.135744-65.835008v-50.69312c0-32.990208-26.48064-59.73504-59.14624-59.73504H452.908032c-32.66048 0-59.14112 26.744832-59.14112 59.73504v50.69312c-41.29792 14.768128-78.454784 37.7344-111.140864 65.835008l-69.961728-40.790016c-28.284928-16.497664-64.454656-6.708224-80.787456 21.865472L72.73472 324.803584c-16.32768 28.56448-6.638592 65.097728 21.646336 81.590272l69.249024 40.38144c-3.883008 21.20704-6.429696 42.873856-6.429696 65.226752 0 22.35392 2.546688 44.019712 6.429696 65.222656l-69.249024 40.38144c-28.284928 16.492544-37.974016 53.030912-21.646336 81.595392l59.14112 103.46496c16.3328 28.56448 52.502528 38.358016 80.787456 21.860352l69.961728-40.795136c32.68608 28.100608 69.842944 51.06688 111.140864 65.835008v50.69824c0 32.990208 26.47552 59.73504 59.14112 59.73504h118.283264c32.66048 0 59.14112-26.744832 59.14112-59.73504v-50.69824c41.298944-14.763008 78.454784-37.72928 111.140864-65.835008l69.956608 40.795136c28.290048 16.497664 64.464896 6.704128 80.792576-21.860352l59.14112-103.45984c16.335872-28.5696 6.641664-65.107968-21.643264-81.600512zM885.36064 695.20384l-29.571072 51.725312c-8.164352 14.28992-26.251264 19.183616-40.3968 10.935296l-82.158592-47.911936c-41.7024 47.5136-98.062336 81.595392-162.043904 94.712832V870.4c0 16.492544-13.238272 29.86496-29.571072 29.86496H482.47808c-16.3328 0-29.571072-13.372416-29.571072-29.86496v-65.73568c-63.985664-13.118464-120.341504-47.199232-162.049024-94.712832l-82.158592 47.911936c-14.140416 8.24832-32.227328 3.354624-40.39168-10.935296l-29.571072-51.725312c-8.169472-14.2848-3.319808-32.550912 10.820608-40.795136l82.492416-48.106496c-9.828352-29.710336-15.710208-61.244416-15.710208-94.29504 0-33.05472 5.880832-64.59392 15.710208-94.309376l-82.492416-48.101376c-14.140416-8.244224-18.989056-26.515456-10.820608-40.795136l29.571072-51.730432c8.164352-14.2848 26.251264-19.178496 40.39168-10.935296l82.162688 47.911936c41.7024-47.5136 98.062336-81.595392 162.043904-94.717952V153.6c0-16.492544 13.238272-29.85984 29.571072-29.85984h59.14112c16.3328 0 29.571072 13.367296 29.571072 29.85984v65.73056c63.981568 13.123584 120.336384 47.204352 162.043904 94.717952l82.158592-47.911936c14.144512-8.244224 32.232448-3.349504 40.3968 10.935296l29.571072 51.730432c8.169472 14.2848 3.319808 32.550912-10.820608 40.795136l-82.492416 48.106496c9.828352 29.715456 15.710208 61.249536 15.710208 94.304256 0 33.0496-5.880832 64.584704-15.710208 94.29504l82.492416 48.101376c14.140416 8.24832 18.99008 26.514432 10.821632 40.799232z" /></svg>