<?xml version="1.0" standalone="no"?><!DOCTYPE svg PUBLIC "-//W3C//DTD SVG 1.1//EN" "http://www.w3.org/Graphics/SVG/1.1/DTD/svg11.dtd"><svg class="icon" width="64px" height="64.00px" viewBox="0 0 1024 1024" version="1.1" xmlns="http://www.w3.org/2000/svg"><path fill="#000000" d="M546 404.76V34c0-18.78-15.22-34-34-34s-34 15.22-34 34v370.76c-45.46 14.45-78.5 57.06-78.5 107.24s33.04 92.8 78.5 107.24V990c0 18.78 15.22 34 34 34s34-15.22 34-34V619.24c45.46-14.45 78.5-57.06 78.5-107.24s-33.04-92.8-78.5-107.24z m0 123.03c-5.97 12.81-18.96 21.71-34 21.71s-28.03-8.9-34-21.71c-2.24-4.8-3.5-10.15-3.5-15.79s1.26-10.99 3.5-15.79c5.97-12.81 18.96-21.71 34-21.71s28.03 8.9 34 21.71c2.24 4.8 3.5 10.15 3.5 15.79s-1.26 10.99-3.5 15.79zM146.5 73.26V34c0-18.78-15.22-34-34-34s-34 15.22-34 34v39.26C33.03 87.7 0 130.31 0 180.5s33.03 92.8 78.5 107.24V990c0 18.78 15.22 34 34 34s34-15.22 34-34V287.74C191.97 273.3 225 230.69 225 180.5s-33.03-92.8-78.5-107.24z m0 123.03c-5.97 12.81-18.96 21.71-34 21.71s-28.03-8.9-34-21.71c-2.24-4.8-3.5-10.15-3.5-15.79s1.26-10.99 3.5-15.79c5.97-12.81 18.96-21.71 34-21.71s28.03 8.9 34 21.71c2.24 4.8 3.5 10.15 3.5 15.79s-1.26 10.99-3.5 15.79zM945.5 718.26V34c0-18.78-15.22-34-34-34s-34 15.22-34 34v684.26C832.04 732.7 799 775.31 799 825.5s33.04 92.8 78.5 107.24V990c0 18.78 15.22 34 34 34s34-15.22 34-34v-57.26c45.46-14.45 78.5-57.06 78.5-107.24s-33.04-92.8-78.5-107.24z m0 123.03c-5.97 12.81-18.96 21.71-34 21.71s-28.03-8.9-34-21.71c-2.24-4.8-3.5-10.15-3.5-15.79s1.26-10.99 3.5-15.79c5.97-12.81 18.96-21.71 34-21.71s28.03 8.9 34 21.71c2.24 4.8 3.5 10.15 3.5 15.79s-1.26 10.99-3.5 15.79z"  /></svg>